<svg viewBox="-2.64 -2.64 29.28 29.28" fill="none" xmlns="http://www.w3.org/2000/svg"><g id="SVGRepo_bgCarrier" stroke-width="0"></g><g id="SVGRepo_tracerCarrier" stroke-linecap="round" stroke-linejoin="round" stroke="#CCCCCC" stroke-width="4.8"> <path d="M9 22H15C20 22 22 20 22 15V9C22 4 20 2 15 2H9C4 2 2 4 2 9V15C2 20 4 22 9 22Z" stroke="#70fa00" stroke-width="2.4" stroke-linecap="round" stroke-linejoin="round"></path> <path opacity="0.34" d="M7.75 11.9999L10.58 14.8299L16.25 9.16992" stroke="#70fa00" stroke-width="2.4" stroke-linecap="round" stroke-linejoin="round"></path> </g><g id="SVGRepo_iconCarrier"> <path d="M9 22H15C20 22 22 20 22 15V9C22 4 20 2 15 2H9C4 2 2 4 2 9V15C2 20 4 22 9 22Z" stroke="#70fa00" stroke-width="2.4" stroke-linecap="round" stroke-linejoin="round"></path> <path opacity="0.34" d="M7.75 11.9999L10.58 14.8299L16.25 9.16992" stroke="#70fa00" stroke-width="2.4" stroke-linecap="round" stroke-linejoin="round"></path> </g></svg>