<svg version="1.1" id="Layer_1" xmlns="http://www.w3.org/2000/svg" xmlns:xlink="http://www.w3.org/1999/xlink" x="0px" y="0px" width="1050px" viewBox="0 0 1024 1024" enable-background="new 0 0 1024 1024" xml:space="preserve" height="1050px" transform="rotate(0) scale(1, 1)">

<path fill="#5a5fd6" opacity="1.000000" stroke="none" d="&#10;M578.440918,678.347839 &#10;&#9;C575.711853,678.274048 575.487549,676.873169 575.450806,674.950989 &#10;&#9;C574.986267,650.638672 575.198486,626.328064 575.421021,602.015686 &#10;&#9;C575.466614,597.031006 575.239746,592.007324 574.644043,587.061096 &#10;&#9;C573.464905,577.270752 564.739441,569.500977 554.061035,568.303345 &#10;&#9;C551.962708,568.067993 549.714661,568.380493 547.069275,566.083435 &#10;&#9;C568.054565,552.664917 576.439087,533.253540 573.389404,509.363770 &#10;&#9;C575.739075,508.332855 576.763672,509.437225 577.854858,510.076447 &#10;&#9;C591.079163,517.822876 604.283997,525.602539 617.494812,533.372070 &#10;&#9;C635.012329,543.674561 644.238831,558.853149 644.332703,579.303284 &#10;&#9;C644.409241,595.968872 644.129089,612.638611 644.392944,629.300354 &#10;&#9;C644.804810,655.304138 624.186829,676.482483 596.886353,678.233093 &#10;&#9;C590.909607,678.616333 584.890442,678.337769 578.440918,678.347839 &#10;z"/>
<path fill="#5a5fd6" opacity="1.000000" stroke="none" d="&#10;M466.869507,474.877197 &#10;&#9;C455.564178,487.432465 451.711456,502.221893 452.274200,518.666382 &#10;&#9;C448.794861,518.472717 446.968903,516.280640 444.748047,515.031799 &#10;&#9;C432.990540,508.420471 421.409088,501.490479 409.569885,495.031494 &#10;&#9;C390.604492,484.684753 381.855255,468.218384 381.087372,447.301361 &#10;&#9;C380.537659,432.327881 380.707306,417.311493 381.049774,402.325531 &#10;&#9;C381.629181,376.971588 401.695892,356.092285 427.419861,353.769897 &#10;&#9;C433.049652,353.261627 438.720917,353.157349 444.376770,353.007599 &#10;&#9;C450.547974,352.844238 450.919098,353.250092 450.927246,359.365753 &#10;&#9;C450.959869,383.855469 450.953766,408.345276 451.022797,432.834869 &#10;&#9;C451.032135,436.156097 450.991943,439.557281 451.653870,442.782043 &#10;&#9;C453.725647,452.874634 462.476929,460.480865 472.945923,461.783234 &#10;&#9;C475.362244,462.083862 477.963440,461.690247 480.645172,463.763031 &#10;&#9;C476.302887,467.799957 470.849457,470.216064 466.869507,474.877197 &#10;z"/>
<path fill="#5a5fd6" opacity="1.000000" stroke="none" d="&#10;M381.121735,546.913696 &#10;&#9;C381.121338,535.050049 381.121338,523.674500 381.121338,511.680450 &#10;&#9;C383.031677,512.335632 383.848938,512.475464 384.519562,512.866638 &#10;&#9;C398.475403,521.006653 412.575714,528.914551 426.315552,537.405396 &#10;&#9;C442.788269,547.585083 450.905640,562.804565 450.997345,582.084839 &#10;&#9;C451.139252,611.911377 451.017273,641.739258 450.973938,671.566528 &#10;&#9;C450.963867,678.500610 450.901947,678.465698 444.191895,678.505798 &#10;&#9;C432.837463,678.573608 421.624268,678.354492 410.928802,673.455078 &#10;&#9;C392.360260,664.949097 382.717560,650.157104 381.882660,630.361084 &#10;&#9;C380.963684,608.569702 381.671692,586.710999 381.597198,564.881836 &#10;&#9;C381.577332,559.054688 381.287842,553.228516 381.121735,546.913696 &#10;z"/>
<path fill="#5a5fd6" opacity="1.000000" stroke="none" d="&#10;M575.582275,361.937500 &#10;&#9;C575.590271,359.996368 575.675476,358.491486 575.574890,356.999084 &#10;&#9;C575.419006,354.687012 576.355103,353.595062 578.726624,353.651123 &#10;&#9;C588.516724,353.882477 598.345703,352.979462 608.000366,355.744812 &#10;&#9;C629.734070,361.969757 644.276855,380.820190 644.315491,403.414062 &#10;&#9;C644.376831,439.230865 644.339600,475.047821 644.315491,510.864716 &#10;&#9;C644.314514,512.302429 644.707031,513.866150 643.543701,515.179260 &#10;&#9;C641.298706,515.659424 639.808289,514.037170 638.157898,513.077209 &#10;&#9;C625.922058,505.960083 613.791321,498.660889 601.516541,491.612366 &#10;&#9;C584.748169,481.983429 575.809509,466.953125 575.258545,448.307861 &#10;&#9;C574.412903,419.694092 574.465149,391.018616 575.582275,361.937500 &#10;z"/>
<path fill="#5a5fd6" opacity="1.000000" stroke="none" d="&#10;M559.316101,540.144775 &#10;&#9;C539.368896,575.481140 491.434845,578.172729 469.506073,545.514709 &#10;&#9;C457.809875,528.095886 457.907318,504.176208 469.743744,487.143677 &#10;&#9;C482.044159,469.443481 503.056244,461.360626 524.061157,466.249023 &#10;&#9;C557.722778,474.082916 574.014832,507.917358 559.316101,540.144775 &#10;M557.017334,524.481995 &#10;&#9;C559.838928,507.137177 554.002075,492.796143 540.678833,481.982208 &#10;&#9;C527.224304,471.061707 511.723663,468.994598 495.575226,475.430237 &#10;&#9;C464.562653,487.789642 458.644684,529.872498 484.809937,551.468506 &#10;&#9;C508.127838,570.714417 548.817383,561.326111 557.017334,524.481995 &#10;z"/>
\
</svg>